<svg xmlns="http://www.w3.org/2000/svg" xmlns:xlink="http://www.w3.org/1999/xlink" width="52" height="52" viewBox="0 0 52 52">
    <defs>
        <rect id="a" width="52" height="52" rx="2"/>
        <filter id="b" width="144.2%" height="144.2%" x="-22.1%" y="-18.3%" filterUnits="objectBoundingBox">
            <feOffset dy="2" in="SourceAlpha" result="shadowOffsetOuter1"/>
            <feGaussianBlur in="shadowOffsetOuter1" result="shadowBlurOuter1" stdDeviation="3.5"/>
            <feColorMatrix in="shadowBlurOuter1" values="0 0 0 0 0 0 0 0 0 0 0 0 0 0 0 0 0 0 0.15 0"/>
        </filter>
    </defs>
    <g fill="none" fill-rule="evenodd">
        <g>
            <mask id="c" fill="#fff">
                <use xlink:href="#a"/>
            </mask>
            <use fill="#000" filter="url(#b)" xlink:href="#a"/>
            <use fill="#41D94E" xlink:href="#a"/>
            <ellipse cx="54" cy="-1" fill="#FFF" mask="url(#c)" opacity=".1" rx="53" ry="43"/>
        </g>
        <path d="M14 15h24v24H14z"/>
        <g fill="#FFF" fill-rule="nonzero">
            <path d="M31.344 28.772a8.944 8.944 0 0 0-4.922-1.467c-4.971 0-9 4.038-9 9.02h.002l-.002.048c0 .466.377.846.844.846.466 0 .843-.38.843-.846 0-.017 0-.03-.002-.047h.002c0-4.048 3.275-7.33 7.313-7.33a7.23 7.23 0 0 1 2.606.481 5.201 5.201 0 0 1 2.316-.705zm.328-6.729a5.256 5.256 0 0 0-5.25-5.262c-2.9 0-5.25 2.356-5.25 5.262a5.256 5.256 0 0 0 5.25 5.262c2.9 0 5.25-2.356 5.25-5.262zm-5.25 3.57a3.567 3.567 0 0 1-3.563-3.57 3.567 3.567 0 0 1 3.563-3.57 3.567 3.567 0 0 1 3.562 3.57 3.567 3.567 0 0 1-3.562 3.57zM27.198 33.392a1 1 0 0 0-1.553 1.26l2.352 2.898a1 1 0 0 0 1.497.063l6.649-6.92a1 1 0 1 0-1.442-1.386l-5.864 6.104-1.639-2.02z"/>
        </g>
    </g>
</svg>
