<svg xmlns="http://www.w3.org/2000/svg" width="24" height="24" viewBox="0 0 24 24">
    <g fill="none" fill-rule="evenodd">
        <path d="M0 0h24v24H0z"/>
        <path fill="#FFF" fill-rule="nonzero" d="M20.54 4.91l-8.125-3.815a.959.959 0 0 0-.808 0L3.48 4.91c-.29.136-.471.406-.471.7v9.471c0 .975.245 1.92.728 2.809.461.849 1.12 1.609 1.955 2.26a9.42 9.42 0 0 0 2.854 1.499 11.07 11.07 0 0 0 3.463.545c1.2 0 2.364-.183 3.463-.545a9.42 9.42 0 0 0 2.854-1.499c.835-.651 1.494-1.411 1.955-2.26a5.827 5.827 0 0 0 .728-2.809V5.61c.001-.294-.18-.564-.469-.7zm-.868 10.172c0 3.051-3.384 5.533-7.542 5.533-4.158 0-7.542-2.482-7.542-5.533V6.089l7.542-3.404 7.542 3.404v8.993z"/>
        <path fill="#FFF" fill-rule="nonzero" d="M11.356 6.462c0-.34.29-.612.644-.612.353 0 .644.271.644.612v.78c1.382.113 2.462 1.198 2.467 2.52v.392c0 .34-.29.611-.643.611-.354 0-.644-.271-.644-.611V9.77c0-.346-.147-.679-.41-.925a1.471 1.471 0 0 0-1.004-.388h-.82c-.683-.002-1.267.448-1.394 1.068-.126.617.237 1.233.869 1.466l2.343.867c1.21.431 1.926 1.61 1.701 2.81-.216 1.151-1.238 2.007-2.465 2.09v.78c0 .34-.29.611-.644.611-.353 0-.644-.271-.644-.612v-.78c-1.382-.113-2.462-1.198-2.467-2.52v-.392c0-.34.29-.611.643-.611.354 0 .644.271.644.611v.383c0 .723.631 1.313 1.414 1.313h.82c.683.002 1.267-.448 1.394-1.068.126-.617-.237-1.233-.869-1.466l-2.343-.867c-1.21-.431-1.926-1.61-1.701-2.81.205-1.094 1.138-1.92 2.283-2.072l.182-.018v-.78z"/>
    </g>
</svg>
