<svg xmlns="http://www.w3.org/2000/svg" width="24" height="24" viewBox="0 0 24 24">
    <g fill="none" fill-rule="evenodd" opacity=".65">
        <path d="M0 0h24v24H0z"/>
        <path fill="#000" fill-rule="nonzero" d="M21.117 3.023H2.864c-.738 0-1.34.603-1.34 1.341V15.61c0 .739.602 1.341 1.34 1.341h8.363v2.529H7.774a.742.742 0 0 0-.74.74c0 .408.332.741.74.741h8.4c.408 0 .74-.333.74-.74a.742.742 0 0 0-.74-.741h-3.466V16.95h8.41c.737 0 1.34-.602 1.34-1.34V4.363c0-.738-.603-1.34-1.34-1.34zm-.14 1.482v10.964H3.005V4.505h17.972z"/>
    </g>
</svg>
