<svg xmlns="http://www.w3.org/2000/svg" width="18" height="23" viewBox="0 0 18 23">
    <g fill="#FFF" fill-rule="nonzero">
        <circle cx="1.136" cy="17.047" r="1.136"/>
        <circle cx="4.916" cy="19.315" r="1.136"/>
        <circle cx="12.476" cy="19.315" r="1.136"/>
        <circle cx="16.256" cy="17.047" r="1.136"/>
        <path d="M1.136 13.643a1.152 1.152 0 0 0 1.132-1.16V1.203A1.148 1.148 0 0 0 1.136.043 1.152 1.152 0 0 0 0 1.203v11.292c.002.629.508 1.14 1.136 1.148zM4.916 15.92a1.148 1.148 0 0 0 1.132-1.16V3.466a1.136 1.136 0 1 0-2.268 0V14.76a1.152 1.152 0 0 0 1.136 1.16zM8.696 18.191a1.152 1.152 0 0 0 1.136-1.16V5.74a1.136 1.136 0 1 0-2.272 0v11.292a1.152 1.152 0 0 0 1.136 1.16z"/>
        <circle cx="8.696" cy="21.587" r="1.136"/>
        <path d="M12.476 15.92a1.152 1.152 0 0 0 1.124-1.16V3.466a1.136 1.136 0 1 0-2.268 0V14.76a1.148 1.148 0 0 0 1.144 1.16zM16.256 13.643a1.152 1.152 0 0 0 1.136-1.16V1.203a1.136 1.136 0 1 0-2.268 0v11.292a1.152 1.152 0 0 0 1.132 1.148z"/>
    </g>
</svg>
