<svg xmlns="http://www.w3.org/2000/svg" xmlns:xlink="http://www.w3.org/1999/xlink" width="64" height="42" viewBox="0 0 64 42">
    <defs>
        <path id="a" d="M4.001.515A10.978 10.978 0 0 1 8 9c0 3.415-1.557 6.467-3.999 8.485A10.972 10.972 0 0 1 0 9C0 5.625 1.52 2.605 3.913.587z"/>
        <rect id="c" width="64" height="42" rx="3"/>
        <filter id="d" width="101.6%" height="102.4%" x="-.8%" y="-1.2%" filterUnits="objectBoundingBox">
            <feMorphology in="SourceAlpha" radius="1" result="shadowSpreadInner1"/>
            <feOffset in="shadowSpreadInner1" result="shadowOffsetInner1"/>
            <feComposite in="shadowOffsetInner1" in2="SourceAlpha" k2="-1" k3="1" operator="arithmetic" result="shadowInnerInner1"/>
            <feColorMatrix in="shadowInnerInner1" values="0 0 0 0 0 0 0 0 0 0 0 0 0 0 0 0 0 0 0.1 0"/>
        </filter>
    </defs>
    <g fill="none" fill-rule="evenodd">
        <rect width="64" height="42" fill="#F4F6F7" rx="3"/>
        <g transform="translate(14 10)">
            <circle cx="11" cy="11" r="11" fill="#D8232A"/>
            <path fill="#ED9F2D" d="M25 0c6.075 0 11 4.925 11 11s-4.925 11-11 11c-2.66 0-5.099-.944-7-2.515 2.443-2.017 4-5.07 4-8.485 0-3.416-1.557-6.468-4-8.485A10.95 10.95 0 0 1 25 0z"/>
            <g transform="translate(14 2)">
                <mask id="b" fill="#fff">
                    <use xlink:href="#a"/>
                </mask>
                <use fill="#D8232A" xlink:href="#a"/>
                <path fill="#ED9F2D" d="M9 17v1H-1v-1H9zm0-2v1H-1v-1H9zm0-2v1H-1v-1H9zm0-2v1H-1v-1H9zm0-2v1H-1V9H9zm0-2v1H-1V7H9zm0-2v1H-1V5H9zm0-2v1H-1V3H9zm0-2v1H-1V1H9z" mask="url(#b)"/>
            </g>
        </g>
        <use fill="#E5E5E5" fill-opacity="0" xlink:href="#c"/>
        <use fill="#000" filter="url(#d)" xlink:href="#c"/>
    </g>
</svg>
