<svg xmlns="http://www.w3.org/2000/svg" width="24" height="24" viewBox="0 0 24 24">
    <g fill="#000" fill-rule="nonzero" opacity=".65">
        <path d="M17.992 0H7.008C5.9 0 5 .836 5 1.867v20.266C5 23.164 5.9 24 7.008 24h10.984C19.1 24 20 23.164 20 22.133V1.867C20 .836 19.1 0 17.992 0zm.508 21.35c0 .695-.438 1.259-.979 1.259H7.48c-.54 0-.979-.564-.979-1.26v-3.958h12v3.958zm0-5.698h-12V2.541c0-.443.438-.802.979-.802H17.52c.54 0 .979.36.979.802v13.111z"/>
        <path d="M12.5 21.5a1.5 1.5 0 1 0 0-3 1.5 1.5 0 0 0 0 3zm0-2.117a.617.617 0 1 1 0 1.234.617.617 0 0 1 0-1.234z"/>
    </g>
</svg>
