<svg xmlns="http://www.w3.org/2000/svg" xmlns:xlink="http://www.w3.org/1999/xlink" width="52" height="52" viewBox="0 0 52 52">
    <defs>
        <rect id="a" width="52" height="52" rx="2"/>
        <filter id="b" width="144.2%" height="144.2%" x="-18.3%" y="-18.3%" filterUnits="objectBoundingBox">
            <feOffset dx="2" dy="2" in="SourceAlpha" result="shadowOffsetOuter1"/>
            <feGaussianBlur in="shadowOffsetOuter1" result="shadowBlurOuter1" stdDeviation="3.5"/>
            <feColorMatrix in="shadowBlurOuter1" values="0 0 0 0 0 0 0 0 0 0 0 0 0 0 0 0 0 0 0.15 0"/>
        </filter>
    </defs>
    <g fill="none" fill-rule="evenodd">
        <g>
            <mask id="c" fill="#fff">
                <use xlink:href="#a"/>
            </mask>
            <use fill="#000" filter="url(#b)" xlink:href="#a"/>
            <use fill="#1890FF" xlink:href="#a"/>
            <ellipse cx="54" cy="-1" fill="#FFF" mask="url(#c)" opacity=".1" rx="53" ry="43"/>
        </g>
        <path d="M14 15h24v24H14z"/>
        <path fill="#FFF" fill-rule="nonzero" d="M18.545 24.717c-.008 0-.015 0-.022-.002l-.025-.002-.017-.003c-.01-.002-.019-.002-.026-.005l-.014-.002a.385.385 0 0 1-.025-.007l-.014-.002-.026-.007c-.005-.003-.01-.003-.014-.005l-.024-.007a195541339324.876 195541339324.876 0 0 1-.037-.012l-.019-.007-.019-.007c-.007-.002-.014-.007-.02-.01-.006-.001-.01-.004-.017-.006l-.021-.012-.014-.007-.024-.014-.012-.007-.023-.014-.012-.007c-.007-.005-.014-.01-.02-.017a.051.051 0 0 1-.013-.009c-.007-.005-.014-.01-.018-.016l-.017-.014a.691.691 0 0 1-.073-.07c-.004-.005-.009-.01-.011-.015-.005-.004-.01-.011-.014-.016-.005-.007-.01-.014-.017-.019a.051.051 0 0 0-.009-.012.129.129 0 0 0-.016-.02l-.007-.012-.014-.024-.007-.012-.014-.023-.008-.014-.011-.021-.007-.014-.01-.021-.007-.02-.007-.018-.007-.02a.043.043 0 0 1-.004-.017l-.007-.024c-.003-.004-.003-.01-.005-.014l-.007-.026c0-.004-.003-.009-.003-.014-.002-.01-.004-.018-.004-.025l-.003-.015-.004-.025-.003-.017-.002-.025c0-.008 0-.015-.002-.022 0-.007 0-.014-.003-.018a.507.507 0 0 1 0-.085c0-.007 0-.014.003-.018 0-.007 0-.015.002-.022l.002-.025.003-.017.004-.026c0-.004.003-.009.003-.014.002-.009.004-.018.004-.025 0-.005.003-.01.003-.014l.007-.026c.002-.005.002-.01.005-.014l.007-.024a.043.043 0 0 0 .004-.016l.007-.021.007-.019.007-.019.01-.02.007-.015.011-.021.008-.014.014-.023.007-.012.014-.024.007-.011c.004-.007.01-.014.016-.021a.051.051 0 0 1 .01-.012.063.063 0 0 1 .016-.019l.014-.016.014-.014.028-.03 4.16-4.161a.842.842 0 0 1 1.193 0c.33.33.33.865 0 1.193l-2.718 2.719h12.752a.843.843 0 1 1 0 1.688H18.566c-.01-.005-.017-.005-.021-.008zm14.91 4.566c.008 0 .015 0 .022.002.009 0 .016.003.025.003l.017.002c.01.002.018.002.026.005l.014.002.025.007.014.002.026.007c.005.003.01.003.014.005l.024.007a.043.043 0 0 0 .016.005l.021.007.019.007.019.007c.007.002.014.007.02.01l.017.006.021.012.014.007.024.014.012.007.023.014.012.007c.007.005.014.01.02.017.005.002.01.007.012.009.008.005.015.01.02.016.004.005.011.01.016.014a.691.691 0 0 1 .073.07c.004.005.009.01.011.015.005.004.01.011.014.016.005.007.01.014.016.019l.01.012.016.02.007.012.014.024.007.012.014.023.007.014.012.021.007.014.01.021.007.02.007.018.007.02a.043.043 0 0 1 .004.017l.007.024c.003.004.003.01.005.014l.007.026.002.014a.12.12 0 0 1 .005.025l.003.015.004.025.003.017.002.026c0 .007 0 .014.002.02a.507.507 0 0 1 .002.103c0 .008 0 .015-.002.02 0 .007 0 .014-.002.02l-.002.026-.003.017-.004.026c0 .004-.003.009-.003.014-.002.009-.005.018-.005.025l-.002.014-.007.026c-.002.005-.002.01-.005.014l-.007.024a.043.043 0 0 0-.004.016l-.007.021-.007.019-.007.019-.01.02-.007.015-.012.021-.007.014-.014.023-.007.012-.014.024-.007.011c-.004.007-.01.014-.016.021-.002.005-.007.01-.01.012-.004.007-.009.014-.016.019l-.014.016-.014.014-.028.03-4.158 4.166a.842.842 0 0 1-1.193 0 .842.842 0 0 1 0-1.193l2.719-2.719H18.605a.843.843 0 1 1 0-1.688H33.437c.007 0 .014 0 .018.003z"/>
    </g>
</svg>
