<svg xmlns="http://www.w3.org/2000/svg" width="24" height="24" viewBox="0 0 24 24">
    <g fill="none" fill-rule="evenodd">
        <circle cx="12" cy="12" r="12" fill="#1890FF"/>
        <path d="M4 4h16.8v16.8H4z"/>
        <path fill="#FFF" fill-rule="nonzero" d="M17.443 17.027a5.46 5.46 0 0 0-1.173-1.74 5.46 5.46 0 0 0-2.418-1.409 4.504 4.504 0 0 0 1.744-1.086 4.49 4.49 0 0 0 1.324-3.194c0-1.206-.47-2.341-1.324-3.194a4.49 4.49 0 0 0-3.194-1.324c-1.206 0-2.342.469-3.195 1.324a4.49 4.49 0 0 0-1.324 3.194c0 1.206.47 2.341 1.324 3.194a4.504 4.504 0 0 0 1.744 1.086 5.46 5.46 0 0 0-2.418 1.41 5.46 5.46 0 0 0-1.603 3.87.59.59 0 1 0 1.181 0c0-1.147.447-2.225 1.257-3.035a4.264 4.264 0 0 1 3.035-1.257c1.147 0 2.225.446 3.035 1.257a4.264 4.264 0 0 1 1.257 3.035.59.59 0 1 0 1.181 0 5.504 5.504 0 0 0-.433-2.131zm-8.38-7.43A3.34 3.34 0 0 1 12.4 6.262a3.34 3.34 0 0 1 3.337 3.337 3.34 3.34 0 0 1-3.337 3.337 3.34 3.34 0 0 1-3.337-3.337z"/>
    </g>
</svg>
